# Blender 4.3.0
# www.blender.org
mtllib SM_Base.mtl
o Cylinder.001
v 0.000000 0.592486 -0.636817
v 0.000000 0.792486 -0.636817
v 0.551500 0.592486 -0.318409
v 0.551500 0.792486 -0.318409
v 0.551500 0.592486 0.318409
v 0.551500 0.792486 0.318409
v 0.000000 0.592486 0.636817
v 0.000000 0.792486 0.636817
v -0.551500 0.592486 0.318409
v -0.551500 0.792486 0.318409
v -0.551500 0.592486 -0.318409
v -0.551500 0.792486 -0.318409
v 0.000000 -0.100000 -1.000000
v 0.000000 0.100000 -1.000000
v 0.866026 -0.100000 -0.500000
v 0.866026 0.100000 -0.500000
v 0.866026 -0.100000 0.500000
v 0.866026 0.100000 0.500000
v 0.000000 -0.100000 1.000000
v 0.000000 0.100000 1.000000
v -0.866026 -0.100000 0.500000
v -0.866026 0.100000 0.500000
v -0.866026 -0.100000 -0.500000
v -0.866026 0.100000 -0.500000
v 0.598171 0.074392 -0.114739
v 0.598171 0.643858 -0.114739
v 0.649326 0.074392 0.374888
v 0.649326 0.643858 0.374888
v 0.199718 0.074392 0.575401
v 0.199718 0.643858 0.575401
v 0.527474 0.643858 -0.155556
v 0.527474 0.074392 -0.155556
v 0.129022 0.643858 0.534584
v 0.129022 0.074392 0.534584
v -0.398453 0.074392 -0.460662
v -0.398453 0.643858 -0.460662
v 0.000000 0.074392 -0.749777
v 0.000000 0.643858 -0.749777
v 0.398453 0.074392 -0.460662
v 0.398453 0.643858 -0.460662
v -0.398453 0.643858 -0.379028
v -0.398453 0.074392 -0.379028
v 0.398453 0.643858 -0.379028
v 0.398453 0.074392 -0.379028
v -0.199718 0.074392 0.575401
v -0.199718 0.643858 0.575401
v -0.649326 0.074392 0.374888
v -0.649326 0.643858 0.374888
v -0.598171 0.074392 -0.114739
v -0.598171 0.643858 -0.114739
v -0.129021 0.643858 0.534584
v -0.129021 0.074392 0.534584
v -0.527474 0.643858 -0.155556
v -0.527474 0.074392 -0.155556
vn 0.5000 -0.0000 -0.8660
vn 1.0000 -0.0000 -0.0000
vn 0.5000 -0.0000 0.8660
vn -0.5000 -0.0000 0.8660
vn -0.0000 1.0000 -0.0000
vn -1.0000 -0.0000 -0.0000
vn -0.5000 -0.0000 -0.8660
vn -0.0000 -1.0000 -0.0000
vn 0.9946 -0.0000 -0.1039
vn 0.4073 -0.0000 0.9133
vn -0.8660 -0.0000 -0.5000
vn -0.5873 -0.0000 -0.8094
vn 0.5873 -0.0000 -0.8094
vn -0.0000 -0.0000 1.0000
vn -0.4073 -0.0000 0.9133
vn -0.9946 -0.0000 -0.1039
vn 0.8660 -0.0000 -0.5000
vt 0.164898 0.594330
vt 0.164898 0.575982
vt 0.174002 0.575982
vt 0.174002 0.594330
vt 0.179534 0.575982
vt 0.179534 0.594330
vt 0.149008 0.607762
vt 0.130659 0.607762
vt 0.130659 0.599817
vt 0.149008 0.599817
vt 0.130659 0.591872
vt 0.149008 0.591872
vt 0.149008 0.608091
vt 0.149008 0.598917
vt 0.156953 0.594330
vt 0.164898 0.598917
vt 0.164898 0.608091
vt 0.156953 0.612678
vt 0.130659 0.583927
vt 0.149008 0.583927
vt 0.130659 0.575982
vt 0.149008 0.575982
vt 0.149008 0.589743
vt 0.149008 0.580569
vt 0.156953 0.575982
vt 0.164898 0.580569
vt 0.164898 0.589743
vt 0.184869 0.816128
vt 0.165021 0.816128
vt 0.165021 0.800663
vt 0.184869 0.800663
vt 0.165021 0.791267
vt 0.184869 0.791267
vt 0.165021 0.818259
vt 0.145173 0.818259
vt 0.145173 0.804763
vt 0.165021 0.804763
vt 0.145173 0.791267
vt 0.165021 0.791267
vt 0.125325 0.783475
vt 0.125325 0.767891
vt 0.138821 0.760100
vt 0.152317 0.767891
vt 0.152317 0.783475
vt 0.138821 0.791267
vt 0.125325 0.818259
vt 0.125325 0.804763
vt 0.125325 0.791267
vt 0.165812 0.760100
vt 0.179308 0.767891
vt 0.179308 0.783475
vt 0.165812 0.791267
vt 0.182397 0.086446
vt 0.182397 0.036977
vt 0.186981 0.036977
vt 0.186981 0.086446
vt 0.152902 0.086446
vt 0.152902 0.036977
vt 0.159035 0.036977
vt 0.159035 0.086446
vt 0.133992 0.091882
vt 0.130049 0.097317
vt 0.130049 0.086446
vt 0.137936 0.086446
vt 0.137936 0.097317
vt 0.139050 0.086446
vt 0.139050 0.097317
vt 0.124633 0.086446
vt 0.113763 0.086446
vt 0.113763 0.036977
vt 0.124633 0.036977
vt 0.160000 0.036977
vt 0.160000 0.086446
vt 0.181292 0.086446
vt 0.181292 0.036977
vt 0.128935 0.097317
vt 0.128935 0.086446
vt 0.160964 0.086446
vt 0.160964 0.036977
vt 0.167097 0.036977
vt 0.167097 0.086446
vt 0.145517 0.086446
vt 0.145517 0.036977
vt 0.152231 0.036977
vt 0.152231 0.086446
vt 0.118820 0.091882
vt 0.122764 0.086446
vt 0.122764 0.097317
vt 0.144107 0.091882
vt 0.140163 0.097317
vt 0.140163 0.086446
vt 0.135504 0.086446
vt 0.135504 0.036977
vt 0.152902 0.036977
vt 0.152902 0.086446
vt 0.123878 0.086446
vt 0.123878 0.097317
vt 0.168062 0.086446
vt 0.168062 0.036977
vt 0.174195 0.036977
vt 0.174195 0.086446
vt 0.174195 0.086446
vt 0.174195 0.036977
vt 0.180328 0.036977
vt 0.180328 0.086446
vt 0.113763 0.091882
vt 0.117707 0.086446
vt 0.117707 0.097317
vt 0.128935 0.091882
vt 0.124991 0.097317
vt 0.124991 0.086446
vt 0.145517 0.086446
vt 0.135504 0.086446
vt 0.145517 0.036977
vt 0.181292 0.086446
vt 0.167097 0.086446
vt 0.167097 0.036977
vt 0.118820 0.086446
vt 0.118820 0.097317
s 0
usemtl Palette
f 1/1/1 2/2/1 4/3/1 3/4/1
f 3/4/2 4/3/2 6/5/2 5/6/2
f 5/7/3 6/8/3 8/9/3 7/10/3
f 7/10/4 8/9/4 10/11/4 9/12/4
f 4/13/5 2/14/5 12/15/5 10/16/5 8/17/5 6/18/5
f 9/12/6 10/11/6 12/19/6 11/20/6
f 11/20/7 12/19/7 2/21/7 1/22/7
f 1/23/8 3/24/8 5/25/8 7/26/8 9/27/8 11/15/8
f 13/28/1 14/29/1 16/30/1 15/31/1
f 15/31/2 16/30/2 18/32/2 17/33/2
f 17/34/3 18/35/3 20/36/3 19/37/3
f 19/37/4 20/36/4 22/38/4 21/39/4
f 16/40/5 14/41/5 24/42/5 22/43/5 20/44/5 18/45/5
f 21/35/6 22/46/6 24/47/6 23/36/6
f 23/36/7 24/47/7 14/48/7 13/38/7
f 13/44/8 15/43/8 17/49/8 19/50/8 21/51/8 23/52/8
f 25/53/9 26/54/9 28/55/9 27/56/9
f 27/57/10 28/58/10 30/59/10 29/60/10
f 28/61/5 26/62/5 30/63/5
f 27/61/8 29/64/8 25/65/8
f 25/65/8 29/64/8 34/66/8 32/67/8
f 32/68/11 34/69/11 33/70/11 31/71/11
f 29/60/4 30/59/4 33/72/4 34/73/4
f 26/54/1 25/53/1 32/74/1 31/75/1
f 30/63/5 26/62/5 31/76/5 33/77/5
f 35/78/12 36/79/12 38/80/12 37/81/12
f 37/82/13 38/83/13 40/84/13 39/85/13
f 38/86/5 36/87/5 40/88/5
f 37/89/8 39/90/8 35/91/8
f 35/91/8 39/90/8 44/67/8 42/66/8
f 42/92/14 44/68/14 43/71/14 41/93/14
f 39/85/2 40/84/2 43/94/2 44/95/2
f 36/79/6 35/78/6 42/73/6 41/72/6
f 40/88/5 36/87/5 41/96/5 43/97/5
f 45/98/15 46/99/15 48/100/15 47/101/15
f 47/102/16 48/103/16 50/104/16 49/105/16
f 48/106/5 46/107/5 50/108/5
f 47/109/8 49/110/8 45/111/8
f 45/111/8 49/110/8 54/97/8 52/96/8
f 52/112/17 54/113/17 53/93/17 51/114/17
f 49/105/7 50/104/7 53/75/7 54/115/7
f 46/99/3 45/98/3 52/116/3 51/117/3
f 50/108/5 46/107/5 51/118/5 53/119/5
